{
    "asset" : {
        "generator" : "Khronos glTF Blender I/O v1.1.45",
        "version" : "2.0"
    },
    "scene" : 0,
    "scenes" : [
        {
            "name" : "Scene",
            "nodes" : [
                0,
                1,
                2,
                3,
                4,
                5
            ]
        }
    ],
    "nodes" : [
        {
            "mesh" : 0,
            "name" : "Body1"
        },
        {
            "mesh" : 1,
            "name" : "Head1"
        },
        {
            "mesh" : 2,
            "name" : "ArmLeft1"
        },
        {
            "mesh" : 3,
            "name" : "ArmRight1"
        },
        {
            "mesh" : 4,
            "name" : "LegLeft1"
        },
        {
            "mesh" : 5,
            "name" : "LegRight1"
        }
    ],
    "materials" : [
        {
            "emissiveFactor" : [
                0,
                0,
                0
            ],
            "name" : "lambert1",
            "pbrMetallicRoughness" : {
                "baseColorFactor" : [
                    0.4000000059604645,
                    0.4000000059604645,
                    0.4000000059604645,
                    1
                ],
                "metallicFactor" : 0,
                "roughnessFactor" : 1
            }
        }
    ],
    "meshes" : [
        {
            "name" : "Body1_1",
            "primitives" : [
                {
                    "attributes" : {
                        "POSITION" : 0,
                        "NORMAL" : 1,
                        "TEXCOORD_0" : 2
                    },
                    "indices" : 3,
                    "material" : 0
                }
            ]
        },
        {
            "name" : "Head1_1",
            "primitives" : [
                {
                    "attributes" : {
                        "POSITION" : 4,
                        "NORMAL" : 5,
                        "TEXCOORD_0" : 6
                    },
                    "indices" : 7,
                    "material" : 0
                }
            ]
        },
        {
            "name" : "ArmLeft1_1",
            "primitives" : [
                {
                    "attributes" : {
                        "POSITION" : 8,
                        "NORMAL" : 9,
                        "TEXCOORD_0" : 10
                    },
                    "indices" : 11,
                    "material" : 0
                }
            ]
        },
        {
            "name" : "ArmRight1_1",
            "primitives" : [
                {
                    "attributes" : {
                        "POSITION" : 12,
                        "NORMAL" : 13,
                        "TEXCOORD_0" : 14
                    },
                    "indices" : 15,
                    "material" : 0
                }
            ]
        },
        {
            "name" : "LegLeft1_1",
            "primitives" : [
                {
                    "attributes" : {
                        "POSITION" : 16,
                        "NORMAL" : 17,
                        "TEXCOORD_0" : 18
                    },
                    "indices" : 19,
                    "material" : 0
                }
            ]
        },
        {
            "name" : "LegRight1_1",
            "primitives" : [
                {
                    "attributes" : {
                        "POSITION" : 20,
                        "NORMAL" : 21,
                        "TEXCOORD_0" : 22
                    },
                    "indices" : 23,
                    "material" : 0
                }
            ]
        }
    ],
    "accessors" : [
        {
            "bufferView" : 0,
            "componentType" : 5126,
            "count" : 32,
            "max" : [
                0.20021705329418182,
                1.2000004053115845,
                0.10000019520521164
            ],
            "min" : [
                -0.20021705329418182,
                0.6000002026557922,
                -0.09999994933605194
            ],
            "type" : "VEC3"
        },
        {
            "bufferView" : 1,
            "componentType" : 5126,
            "count" : 32,
            "type" : "VEC3"
        },
        {
            "bufferView" : 2,
            "componentType" : 5126,
            "count" : 32,
            "type" : "VEC2"
        },
        {
            "bufferView" : 3,
            "componentType" : 5123,
            "count" : 36,
            "type" : "SCALAR"
        },
        {
            "bufferView" : 4,
            "componentType" : 5126,
            "count" : 26,
            "max" : [
                0.20000004768371582,
                1.6000005006790161,
                0.20000027120113373
            ],
            "min" : [
                -0.20000004768371582,
                1.2000004053115845,
                -0.19999989867210388
            ],
            "type" : "VEC3"
        },
        {
            "bufferView" : 5,
            "componentType" : 5126,
            "count" : 26,
            "type" : "VEC3"
        },
        {
            "bufferView" : 6,
            "componentType" : 5126,
            "count" : 26,
            "type" : "VEC2"
        },
        {
            "bufferView" : 7,
            "componentType" : 5123,
            "count" : 36,
            "type" : "SCALAR"
        },
        {
            "bufferView" : 8,
            "componentType" : 5126,
            "count" : 113,
            "max" : [
                0.40000009536743164,
                1.2000004053115845,
                0.10000019520521164
            ],
            "min" : [
                0.20000004768371582,
                0.5000001788139343,
                -0.09999996423721313
            ],
            "type" : "VEC3"
        },
        {
            "bufferView" : 9,
            "componentType" : 5126,
            "count" : 113,
            "type" : "VEC3"
        },
        {
            "bufferView" : 10,
            "componentType" : 5126,
            "count" : 113,
            "type" : "VEC2"
        },
        {
            "bufferView" : 11,
            "componentType" : 5123,
            "count" : 159,
            "type" : "SCALAR"
        },
        {
            "bufferView" : 12,
            "componentType" : 5126,
            "count" : 120,
            "max" : [
                -0.20000004768371582,
                1.2000004053115845,
                0.10000019520521164
            ],
            "min" : [
                -0.40000009536743164,
                0.5000001788139343,
                -0.09999996423721313
            ],
            "type" : "VEC3"
        },
        {
            "bufferView" : 13,
            "componentType" : 5126,
            "count" : 120,
            "type" : "VEC3"
        },
        {
            "bufferView" : 14,
            "componentType" : 5126,
            "count" : 120,
            "type" : "VEC2"
        },
        {
            "bufferView" : 15,
            "componentType" : 5123,
            "count" : 162,
            "type" : "SCALAR"
        },
        {
            "bufferView" : 16,
            "componentType" : 5126,
            "count" : 95,
            "max" : [
                0.20000004768371582,
                0.6000002026557922,
                0.2000000774860382
            ],
            "min" : [
                -1.0910502353407084e-17,
                -2.6871781244608428e-08,
                -0.10000003129243851
            ],
            "type" : "VEC3"
        },
        {
            "bufferView" : 17,
            "componentType" : 5126,
            "count" : 95,
            "type" : "VEC3"
        },
        {
            "bufferView" : 18,
            "componentType" : 5126,
            "count" : 95,
            "type" : "VEC2"
        },
        {
            "bufferView" : 19,
            "componentType" : 5123,
            "count" : 108,
            "type" : "SCALAR"
        },
        {
            "bufferView" : 20,
            "componentType" : 5126,
            "count" : 97,
            "max" : [
                2.320250672314274e-34,
                0.6000002026557922,
                0.2000000774860382
            ],
            "min" : [
                -0.20000004768371582,
                -3.029873241189307e-09,
                -0.10000003129243851
            ],
            "type" : "VEC3"
        },
        {
            "bufferView" : 21,
            "componentType" : 5126,
            "count" : 97,
            "type" : "VEC3"
        },
        {
            "bufferView" : 22,
            "componentType" : 5126,
            "count" : 97,
            "type" : "VEC2"
        },
        {
            "bufferView" : 23,
            "componentType" : 5123,
            "count" : 108,
            "type" : "SCALAR"
        }
    ],
    "bufferViews" : [
        {
            "buffer" : 0,
            "byteLength" : 384,
            "byteOffset" : 0
        },
        {
            "buffer" : 0,
            "byteLength" : 384,
            "byteOffset" : 384
        },
        {
            "buffer" : 0,
            "byteLength" : 256,
            "byteOffset" : 768
        },
        {
            "buffer" : 0,
            "byteLength" : 72,
            "byteOffset" : 1024
        },
        {
            "buffer" : 0,
            "byteLength" : 312,
            "byteOffset" : 1096
        },
        {
            "buffer" : 0,
            "byteLength" : 312,
            "byteOffset" : 1408
        },
        {
            "buffer" : 0,
            "byteLength" : 208,
            "byteOffset" : 1720
        },
        {
            "buffer" : 0,
            "byteLength" : 72,
            "byteOffset" : 1928
        },
        {
            "buffer" : 0,
            "byteLength" : 1356,
            "byteOffset" : 2000
        },
        {
            "buffer" : 0,
            "byteLength" : 1356,
            "byteOffset" : 3356
        },
        {
            "buffer" : 0,
            "byteLength" : 904,
            "byteOffset" : 4712
        },
        {
            "buffer" : 0,
            "byteLength" : 318,
            "byteOffset" : 5616
        },
        {
            "buffer" : 0,
            "byteLength" : 1440,
            "byteOffset" : 5936
        },
        {
            "buffer" : 0,
            "byteLength" : 1440,
            "byteOffset" : 7376
        },
        {
            "buffer" : 0,
            "byteLength" : 960,
            "byteOffset" : 8816
        },
        {
            "buffer" : 0,
            "byteLength" : 324,
            "byteOffset" : 9776
        },
        {
            "buffer" : 0,
            "byteLength" : 1140,
            "byteOffset" : 10100
        },
        {
            "buffer" : 0,
            "byteLength" : 1140,
            "byteOffset" : 11240
        },
        {
            "buffer" : 0,
            "byteLength" : 760,
            "byteOffset" : 12380
        },
        {
            "buffer" : 0,
            "byteLength" : 216,
            "byteOffset" : 13140
        },
        {
            "buffer" : 0,
            "byteLength" : 1164,
            "byteOffset" : 13356
        },
        {
            "buffer" : 0,
            "byteLength" : 1164,
            "byteOffset" : 14520
        },
        {
            "buffer" : 0,
            "byteLength" : 776,
            "byteOffset" : 15684
        },
        {
            "buffer" : 0,
            "byteLength" : 216,
            "byteOffset" : 16460
        }
    ],
    "buffers" : [
        {
            "byteLength" : 16676,
            "uri" : "advancedCharacter.bin"
        }
    ]
}
