{
  "accessors": [
    {
      "name": "Body1_1_positions",
      "componentType": 5126,
      "count": 24,
      "min": [
        -2.0021700859069824,
        6,
        -1
      ],
      "max": [
        2.0021700859069824,
        12,
        1
      ],
      "type": "VEC3",
      "bufferView": 0,
      "byteOffset": 0
    },
    {
      "name": "Body1_1_normals",
      "componentType": 5126,
      "count": 24,
      "min": [
        -0.9999979734420776,
        -1,
        -1
      ],
      "max": [
        0.9999979734420776,
        1,
        1
      ],
      "type": "VEC3",
      "bufferView": 0,
      "byteOffset": 3768
    },
    {
      "name": "Body1_1_texcoords",
      "componentType": 5126,
      "count": 24,
      "min": [
        0.4031609892845154,
        0.33896398544311523
      ],
      "max": [
        0.828685998916626,
        0.6935669779777527
      ],
      "type": "VEC2",
      "bufferView": 1,
      "byteOffset": 0
    },
    {
      "name": "Body1_1_0_indices",
      "componentType": 5123,
      "count": 36,
      "min": [
        0
      ],
      "max": [
        23
      ],
      "type": "SCALAR",
      "bufferView": 2,
      "byteOffset": 0
    },
    {
      "name": "Head1_1_positions",
      "componentType": 5126,
      "count": 24,
      "min": [
        -2,
        12,
        -2
      ],
      "max": [
        2,
        16,
        2
      ],
      "type": "VEC3",
      "bufferView": 0,
      "byteOffset": 288
    },
    {
      "name": "Head1_1_normals",
      "componentType": 5126,
      "count": 24,
      "min": [
        -1,
        -1,
        -1
      ],
      "max": [
        1,
        1,
        1
      ],
      "type": "VEC3",
      "bufferView": 0,
      "byteOffset": 4056
    },
    {
      "name": "Head1_1_texcoords",
      "componentType": 5126,
      "count": 24,
      "min": [
        0.07294359803199768,
        0.008193000219762325
      ],
      "max": [
        0.638122022151947,
        0.43207699060440063
      ],
      "type": "VEC2",
      "bufferView": 1,
      "byteOffset": 192
    },
    {
      "name": "Head1_1_0_indices",
      "componentType": 5123,
      "count": 36,
      "min": [
        0
      ],
      "max": [
        23
      ],
      "type": "SCALAR",
      "bufferView": 2,
      "byteOffset": 72
    },
    {
      "name": "ArmLeft1_1_positions",
      "componentType": 5126,
      "count": 79,
      "min": [
        2,
        5,
        -1
      ],
      "max": [
        4,
        12,
        1
      ],
      "type": "VEC3",
      "bufferView": 0,
      "byteOffset": 576
    },
    {
      "name": "ArmLeft1_1_normals",
      "componentType": 5126,
      "count": 79,
      "min": [
        -1,
        -1,
        -1
      ],
      "max": [
        1,
        1,
        1
      ],
      "type": "VEC3",
      "bufferView": 0,
      "byteOffset": 4344
    },
    {
      "name": "ArmLeft1_1_texcoords",
      "componentType": 5126,
      "count": 79,
      "min": [
        0.6623899936676025,
        0.024167999625205994
      ],
      "max": [
        0.9523079991340637,
        0.4952859878540039
      ],
      "type": "VEC2",
      "bufferView": 1,
      "byteOffset": 384
    },
    {
      "name": "ArmLeft1_1_0_indices",
      "componentType": 5123,
      "count": 159,
      "min": [
        0
      ],
      "max": [
        78
      ],
      "type": "SCALAR",
      "bufferView": 2,
      "byteOffset": 144
    },
    {
      "name": "ArmRight1_1_positions",
      "componentType": 5126,
      "count": 83,
      "min": [
        -4,
        5,
        -1
      ],
      "max": [
        -2,
        12,
        1
      ],
      "type": "VEC3",
      "bufferView": 0,
      "byteOffset": 1524
    },
    {
      "name": "ArmRight1_1_normals",
      "componentType": 5126,
      "count": 83,
      "min": [
        -1,
        -1,
        -1
      ],
      "max": [
        1,
        1,
        1
      ],
      "type": "VEC3",
      "bufferView": 0,
      "byteOffset": 5292
    },
    {
      "name": "ArmRight1_1_texcoords",
      "componentType": 5126,
      "count": 83,
      "min": [
        0.037581298500299454,
        0.37254101037979126
      ],
      "max": [
        0.32749998569488525,
        0.8436579704284668
      ],
      "type": "VEC2",
      "bufferView": 1,
      "byteOffset": 1016
    },
    {
      "name": "ArmRight1_1_0_indices",
      "componentType": 5123,
      "count": 162,
      "min": [
        0
      ],
      "max": [
        82
      ],
      "type": "SCALAR",
      "bufferView": 2,
      "byteOffset": 464
    },
    {
      "name": "LegLeft1_1_positions",
      "componentType": 5126,
      "count": 52,
      "min": [
        -1.0910499706429124e-16,
        2.188239970623908e-17,
        -1
      ],
      "max": [
        2,
        6,
        2
      ],
      "type": "VEC3",
      "bufferView": 0,
      "byteOffset": 2520
    },
    {
      "name": "LegLeft1_1_normals",
      "componentType": 5126,
      "count": 52,
      "min": [
        -1,
        -1,
        -1
      ],
      "max": [
        1,
        1,
        1
      ],
      "type": "VEC3",
      "bufferView": 0,
      "byteOffset": 6288
    },
    {
      "name": "LegLeft1_1_texcoords",
      "componentType": 5126,
      "count": 52,
      "min": [
        0.7067090272903442,
        0.6381030082702637
      ],
      "max": [
        0.9819080233573914,
        0.9821016788482666
      ],
      "type": "VEC2",
      "bufferView": 1,
      "byteOffset": 1680
    },
    {
      "name": "LegLeft1_1_0_indices",
      "componentType": 5123,
      "count": 108,
      "min": [
        0
      ],
      "max": [
        51
      ],
      "type": "SCALAR",
      "bufferView": 2,
      "byteOffset": 788
    },
    {
      "name": "LegRight1_1_positions",
      "componentType": 5126,
      "count": 52,
      "min": [
        -2,
        2.3841900542720396e-7,
        -1
      ],
      "max": [
        2.320250075383549e-33,
        6,
        2
      ],
      "type": "VEC3",
      "bufferView": 0,
      "byteOffset": 3144
    },
    {
      "name": "LegRight1_1_normals",
      "componentType": 5126,
      "count": 52,
      "min": [
        -1,
        -1,
        -1
      ],
      "max": [
        1,
        1,
        1
      ],
      "type": "VEC3",
      "bufferView": 0,
      "byteOffset": 6912
    },
    {
      "name": "LegRight1_1_texcoords",
      "componentType": 5126,
      "count": 52,
      "min": [
        0.2878139913082123,
        0.6453729867935181
      ],
      "max": [
        0.5630130171775818,
        0.9893707036972046
      ],
      "type": "VEC2",
      "bufferView": 1,
      "byteOffset": 2096
    },
    {
      "name": "LegRight1_1_0_indices",
      "componentType": 5123,
      "count": 108,
      "min": [
        0
      ],
      "max": [
        51
      ],
      "type": "SCALAR",
      "bufferView": 2,
      "byteOffset": 1004
    }
  ],
  "asset": {
    "generator": "obj2gltf",
    "version": "2.0"
  },
  "buffers": [
    {
      "name": "advancedCharacter",
      "byteLength": 11268,
      "uri": "data:application/octet-stream;base64,"
    }
  ],
  "bufferViews": [
    {
      "name": "bufferView_0",
      "buffer": 0,
      "byteLength": 7536,
      "byteOffset": 0,
      "byteStride": 12,
      "target": 34962
    },
    {
      "name": "bufferView_1",
      "buffer": 0,
      "byteLength": 2512,
      "byteOffset": 7536,
      "byteStride": 8,
      "target": 34962
    },
    {
      "name": "bufferView_2",
      "buffer": 0,
      "byteLength": 1220,
      "byteOffset": 10048,
      "target": 34963
    }
  ],
  "materials": [
    {
      "name": "lambert1",
      "pbrMetallicRoughness": {
        "baseColorFactor": [
          0.4,
          0.4,
          0.4,
          1
        ],
        "metallicFactor": 0,
        "roughnessFactor": 1
      },
      "emissiveFactor": [
        0,
        0,
        0
      ],
      "alphaMode": "OPAQUE",
      "doubleSided": false
    }
  ],
  "meshes": [
    {
      "name": "Body1_1",
      "primitives": [
        {
          "attributes": {
            "POSITION": 0,
            "NORMAL": 1,
            "TEXCOORD_0": 2
          },
          "indices": 3,
          "material": 0,
          "mode": 4
        }
      ]
    },
    {
      "name": "Head1_1",
      "primitives": [
        {
          "attributes": {
            "POSITION": 4,
            "NORMAL": 5,
            "TEXCOORD_0": 6
          },
          "indices": 7,
          "material": 0,
          "mode": 4
        }
      ]
    },
    {
      "name": "ArmLeft1_1",
      "primitives": [
        {
          "attributes": {
            "POSITION": 8,
            "NORMAL": 9,
            "TEXCOORD_0": 10
          },
          "indices": 11,
          "material": 0,
          "mode": 4
        }
      ]
    },
    {
      "name": "ArmRight1_1",
      "primitives": [
        {
          "attributes": {
            "POSITION": 12,
            "NORMAL": 13,
            "TEXCOORD_0": 14
          },
          "indices": 15,
          "material": 0,
          "mode": 4
        }
      ]
    },
    {
      "name": "LegLeft1_1",
      "primitives": [
        {
          "attributes": {
            "POSITION": 16,
            "NORMAL": 17,
            "TEXCOORD_0": 18
          },
          "indices": 19,
          "material": 0,
          "mode": 4
        }
      ]
    },
    {
      "name": "LegRight1_1",
      "primitives": [
        {
          "attributes": {
            "POSITION": 20,
            "NORMAL": 21,
            "TEXCOORD_0": 22
          },
          "indices": 23,
          "material": 0,
          "mode": 4
        }
      ]
    }
  ],
  "nodes": [
    {
      "name": "Body1",
      "mesh": 0
    },
    {
      "name": "Head1",
      "mesh": 1
    },
    {
      "name": "ArmLeft1",
      "mesh": 2
    },
    {
      "name": "ArmRight1",
      "mesh": 3
    },
    {
      "name": "LegLeft1",
      "mesh": 4
    },
    {
      "name": "LegRight1",
      "mesh": 5
    }
  ],
  "scene": 0,
  "scenes": [
    {
      "nodes": [
        0,
        1,
        2,
        3,
        4,
        5
      ]
    }
  ]
}
