{
  "accessors": [
    {
      "name": "Body1_1_positions",
      "componentType": 5126,
      "count": 24,
      "min": [
        -2.0021700859069824,
        6,
        -1
      ],
      "max": [
        2.0021700859069824,
        12,
        1
      ],
      "type": "VEC3",
      "bufferView": 0,
      "byteOffset": 0
    },
    {
      "name": "Body1_1_normals",
      "componentType": 5126,
      "count": 24,
      "min": [
        -0.9999979734420776,
        -1,
        -1
      ],
      "max": [
        0.9999979734420776,
        1,
        1
      ],
      "type": "VEC3",
      "bufferView": 0,
      "byteOffset": 2112
    },
    {
      "name": "Body1_1_texcoords",
      "componentType": 5126,
      "count": 24,
      "min": [
        0.39485999941825867,
        0.3251290023326874
      ],
      "max": [
        0.8203849792480469,
        0.6797329783439636
      ],
      "type": "VEC2",
      "bufferView": 1,
      "byteOffset": 0
    },
    {
      "name": "Body1_1_0_indices",
      "componentType": 5123,
      "count": 36,
      "min": [
        0
      ],
      "max": [
        23
      ],
      "type": "SCALAR",
      "bufferView": 2,
      "byteOffset": 0
    },
    {
      "name": "Head1_1_positions",
      "componentType": 5126,
      "count": 24,
      "min": [
        -2,
        12,
        -2
      ],
      "max": [
        2,
        16,
        2
      ],
      "type": "VEC3",
      "bufferView": 0,
      "byteOffset": 288
    },
    {
      "name": "Head1_1_normals",
      "componentType": 5126,
      "count": 24,
      "min": [
        -1,
        -1,
        -1
      ],
      "max": [
        1,
        1,
        1
      ],
      "type": "VEC3",
      "bufferView": 0,
      "byteOffset": 2400
    },
    {
      "name": "Head1_1_texcoords",
      "componentType": 5126,
      "count": 24,
      "min": [
        0.07294359803199768,
        0.01372699998319149
      ],
      "max": [
        0.638122022151947,
        0.43761101365089417
      ],
      "type": "VEC2",
      "bufferView": 1,
      "byteOffset": 192
    },
    {
      "name": "Head1_1_0_indices",
      "componentType": 5123,
      "count": 36,
      "min": [
        0
      ],
      "max": [
        23
      ],
      "type": "SCALAR",
      "bufferView": 2,
      "byteOffset": 72
    },
    {
      "name": "ArmLeft1_1_positions",
      "componentType": 5126,
      "count": 32,
      "min": [
        2,
        6,
        -1
      ],
      "max": [
        4,
        12,
        1
      ],
      "type": "VEC3",
      "bufferView": 0,
      "byteOffset": 576
    },
    {
      "name": "ArmLeft1_1_normals",
      "componentType": 5126,
      "count": 32,
      "min": [
        -1,
        -1,
        -1
      ],
      "max": [
        1,
        1,
        1
      ],
      "type": "VEC3",
      "bufferView": 0,
      "byteOffset": 2688
    },
    {
      "name": "ArmLeft1_1_texcoords",
      "componentType": 5126,
      "count": 32,
      "min": [
        0.6946390271186829,
        0.02201399952173233
      ],
      "max": [
        0.9722200036048889,
        0.3689900040626526
      ],
      "type": "VEC2",
      "bufferView": 1,
      "byteOffset": 384
    },
    {
      "name": "ArmLeft1_1_0_indices",
      "componentType": 5123,
      "count": 60,
      "min": [
        0
      ],
      "max": [
        31
      ],
      "type": "SCALAR",
      "bufferView": 2,
      "byteOffset": 144
    },
    {
      "name": "ArmRight1_1_positions",
      "componentType": 5126,
      "count": 32,
      "min": [
        -4,
        6,
        -1
      ],
      "max": [
        -2,
        12,
        1
      ],
      "type": "VEC3",
      "bufferView": 0,
      "byteOffset": 960
    },
    {
      "name": "ArmRight1_1_normals",
      "componentType": 5126,
      "count": 32,
      "min": [
        -1,
        -1,
        -1
      ],
      "max": [
        1,
        1,
        1
      ],
      "type": "VEC3",
      "bufferView": 0,
      "byteOffset": 3072
    },
    {
      "name": "ArmRight1_1_texcoords",
      "componentType": 5126,
      "count": 32,
      "min": [
        0.04151130095124245,
        0.4013890027999878
      ],
      "max": [
        0.3190920054912567,
        0.7483649849891663
      ],
      "type": "VEC2",
      "bufferView": 1,
      "byteOffset": 640
    },
    {
      "name": "ArmRight1_1_0_indices",
      "componentType": 5123,
      "count": 60,
      "min": [
        0
      ],
      "max": [
        31
      ],
      "type": "SCALAR",
      "bufferView": 2,
      "byteOffset": 264
    },
    {
      "name": "LegLeft1_1_positions",
      "componentType": 5126,
      "count": 32,
      "min": [
        9.910120046752803e-17,
        0,
        -1
      ],
      "max": [
        2,
        6,
        1
      ],
      "type": "VEC3",
      "bufferView": 0,
      "byteOffset": 1344
    },
    {
      "name": "LegLeft1_1_normals",
      "componentType": 5126,
      "count": 32,
      "min": [
        -1,
        -1,
        -1
      ],
      "max": [
        1,
        1,
        1
      ],
      "type": "VEC3",
      "bufferView": 0,
      "byteOffset": 3456
    },
    {
      "name": "LegLeft1_1_texcoords",
      "componentType": 5126,
      "count": 32,
      "min": [
        0.7005450129508972,
        0.6227009892463684
      ],
      "max": [
        0.9781259894371033,
        0.9696770906448364
      ],
      "type": "VEC2",
      "bufferView": 1,
      "byteOffset": 896
    },
    {
      "name": "LegLeft1_1_0_indices",
      "componentType": 5123,
      "count": 60,
      "min": [
        0
      ],
      "max": [
        31
      ],
      "type": "SCALAR",
      "bufferView": 2,
      "byteOffset": 384
    },
    {
      "name": "LegRight1_1_positions",
      "componentType": 5126,
      "count": 32,
      "min": [
        -2,
        -1.1920899822825959e-7,
        -1
      ],
      "max": [
        2.0914000503405284e-16,
        6,
        1
      ],
      "type": "VEC3",
      "bufferView": 0,
      "byteOffset": 1728
    },
    {
      "name": "LegRight1_1_normals",
      "componentType": 5126,
      "count": 32,
      "min": [
        -1,
        -1,
        -1
      ],
      "max": [
        1,
        1,
        1
      ],
      "type": "VEC3",
      "bufferView": 0,
      "byteOffset": 3840
    },
    {
      "name": "LegRight1_1_texcoords",
      "componentType": 5126,
      "count": 32,
      "min": [
        0.2787509858608246,
        0.6417350172996521
      ],
      "max": [
        0.556331992149353,
        0.988710880279541
      ],
      "type": "VEC2",
      "bufferView": 1,
      "byteOffset": 1152
    },
    {
      "name": "LegRight1_1_0_indices",
      "componentType": 5123,
      "count": 60,
      "min": [
        0
      ],
      "max": [
        31
      ],
      "type": "SCALAR",
      "bufferView": 2,
      "byteOffset": 504
    }
  ],
  "asset": {
    "generator": "obj2gltf",
    "version": "2.0"
  },
  "buffers": [
    {
      "name": "basicCharacter",
      "byteLength": 6256,
      "uri": "data:application/octet-stream;base64,"
    }
  ],
  "bufferViews": [
    {
      "name": "bufferView_0",
      "buffer": 0,
      "byteLength": 4224,
      "byteOffset": 0,
      "byteStride": 12,
      "target": 34962
    },
    {
      "name": "bufferView_1",
      "buffer": 0,
      "byteLength": 1408,
      "byteOffset": 4224,
      "byteStride": 8,
      "target": 34962
    },
    {
      "name": "bufferView_2",
      "buffer": 0,
      "byteLength": 624,
      "byteOffset": 5632,
      "target": 34963
    }
  ],
  "materials": [
    {
      "name": "lambert1",
      "pbrMetallicRoughness": {
        "baseColorFactor": [
          0.4,
          0.4,
          0.4,
          1
        ],
        "metallicFactor": 0,
        "roughnessFactor": 1
      },
      "emissiveFactor": [
        0,
        0,
        0
      ],
      "alphaMode": "OPAQUE",
      "doubleSided": false
    }
  ],
  "meshes": [
    {
      "name": "Body1_1",
      "primitives": [
        {
          "attributes": {
            "POSITION": 0,
            "NORMAL": 1,
            "TEXCOORD_0": 2
          },
          "indices": 3,
          "material": 0,
          "mode": 4
        }
      ]
    },
    {
      "name": "Head1_1",
      "primitives": [
        {
          "attributes": {
            "POSITION": 4,
            "NORMAL": 5,
            "TEXCOORD_0": 6
          },
          "indices": 7,
          "material": 0,
          "mode": 4
        }
      ]
    },
    {
      "name": "ArmLeft1_1",
      "primitives": [
        {
          "attributes": {
            "POSITION": 8,
            "NORMAL": 9,
            "TEXCOORD_0": 10
          },
          "indices": 11,
          "material": 0,
          "mode": 4
        }
      ]
    },
    {
      "name": "ArmRight1_1",
      "primitives": [
        {
          "attributes": {
            "POSITION": 12,
            "NORMAL": 13,
            "TEXCOORD_0": 14
          },
          "indices": 15,
          "material": 0,
          "mode": 4
        }
      ]
    },
    {
      "name": "LegLeft1_1",
      "primitives": [
        {
          "attributes": {
            "POSITION": 16,
            "NORMAL": 17,
            "TEXCOORD_0": 18
          },
          "indices": 19,
          "material": 0,
          "mode": 4
        }
      ]
    },
    {
      "name": "LegRight1_1",
      "primitives": [
        {
          "attributes": {
            "POSITION": 20,
            "NORMAL": 21,
            "TEXCOORD_0": 22
          },
          "indices": 23,
          "material": 0,
          "mode": 4
        }
      ]
    }
  ],
  "nodes": [
    {
      "name": "Body1",
      "mesh": 0
    },
    {
      "name": "Head1",
      "mesh": 1
    },
    {
      "name": "ArmLeft1",
      "mesh": 2
    },
    {
      "name": "ArmRight1",
      "mesh": 3
    },
    {
      "name": "LegLeft1",
      "mesh": 4
    },
    {
      "name": "LegRight1",
      "mesh": 5
    }
  ],
  "scene": 0,
  "scenes": [
    {
      "nodes": [
        0,
        1,
        2,
        3,
        4,
        5
      ]
    }
  ]
}
